# xmcd
#
# Track frame offsets:
#        150
#        18979
#        35565
#        56047
#        59383
#        76383
#        99016
#        117200
#        121902
#        143586
#        163424
#        178770
#        206002
#
# Disc length: 3160 seconds
#
# Revision: 0
# Processed by: cddbd v1.5.1PL2 Copyright (c) Steve Scherf et al.
# Submitted via: ExactAudioCopy v0.95b3
#
DISCID=ae0c560d
DTITLE=Tama Waipara - Triumph Of Time
DYEAR=2003
DGENRE=Acid Jazz
TTITLE0=All The World
TTITLE1=Love And Sleep
TTITLE2=April's Lady
TTITLE3=Reminiscence Of Time I
TTITLE4=Colours Of You
TTITLE5=Never Try
TTITLE6=Felise
TTITLE7=Reminiscence Of Time II
TTITLE8=Korowai
TTITLE9=At A Month's End
TTITLE10=Triumph Of Time
TTITLE11=Felise (Chris Brann Remix)
TTITLE12=April's Ladys (Waiwan Remix)
EXTD=
EXTT0=
EXTT1=
EXTT2=
EXTT3=
EXTT4=
EXTT5=
EXTT6=
EXTT7=
EXTT8=
EXTT9=
EXTT10=
EXTT11=
EXTT12=
PLAYORDER=
